<?xml version="1.0" encoding="utf-8"?>
<!-- Generator: Adobe Illustrator 19.0.0, SVG Export Plug-In . SVG Version: 6.00 Build 0)  -->
<svg version="1.1" id="Layer_1" xmlns="http://www.w3.org/2000/svg" xmlns:xlink="http://www.w3.org/1999/xlink" x="0px" y="0px"
	 viewBox="-565 566.7 68.3 68.3" style="enable-background:new -565 566.7 68.3 68.3;" xml:space="preserve">
<style type="text/css">
	.st0{fill:#FFFFFF;}
</style>
<path id="XMLID_5_" class="st0" d="M-512.3,595.5l-17-17c-0.4-0.4-1-0.6-1.6-0.6c-0.6-0.1-1.2,0.1-1.6,0.6l-17,17
	c-0.8,0.8-0.8,2.1,0,2.8c0.8,0.8,2.1,0.8,2.8,0l13.7-13.7v36.2c0,1.1,0.9,2,2,2s2-0.9,2-2v-36.2l13.7,13.7c0.8,0.8,2.1,0.8,2.8,0
	C-511.5,597.5-511.5,596.3-512.3,595.5z"/>
</svg>
